<?xml version="1.0"?><svg fill="#000000" xmlns="http://www.w3.org/2000/svg" viewBox="0 0 50 50" width="50px" height="50px">    <path d="M 25 1 C 23.271 1 21.646828 1.6734844 20.423828 2.8964844 L 15.341797 7.9785156 L 25.015625 17.65625 L 34.673828 7.9902344 L 29.578125 2.8964844 C 28.353125 1.6734844 26.729 1 25 1 z M 13.925781 9.3925781 L 2.8964844 20.421875 C 1.6744844 21.643875 1.0019531 23.27 1.0019531 25 C 1.0019531 26.73 1.6744844 28.355125 2.8964844 29.578125 L 8.0019531 34.683594 L 23.599609 19.072266 L 13.925781 9.3925781 z M 36.087891 9.4042969 L 26.429688 19.072266 L 35.517578 28.167969 L 45.224609 18.542969 L 36.087891 9.4042969 z M 46.638672 19.957031 L 36.931641 29.582031 L 42.013672 34.667969 L 47.103516 29.578125 C 48.315516 28.367125 48.988047 26.755016 48.998047 25.041016 C 49.010047 23.296016 48.338516 21.655875 47.103516 20.421875 L 46.638672 19.957031 z M 25.013672 20.488281 L 9.4179688 36.097656 L 9.4199219 36.099609 L 20.423828 47.101562 C 21.647828 48.324562 23.272 48.998047 25 48.998047 C 26.728 48.998047 28.354125 48.324562 29.578125 47.101562 L 40.599609 36.082031 L 40.599609 36.080078 L 25.013672 20.488281 z"/></svg>